
<global>
amp_veltrack=0
ampeg_release=0.2
</global>

<group>
group_label=PP
lpc_hicc1=42
lpc_locc1=0

<region>
hikey=g#3
hivel=127
lokey=g3
lovel=1
lpc=9QifQuErBcPQZaRBvDLCQdUbvkC1pFFBbPo5vmeFy8AnReXA9c9ZQIziO0CymkVAeN9Iv10yYcAyB7HAO5HQPtuhDUCkhn++TsCMP5QPwT9uYy2/qSNOv2CJmT9GLOO+
lpc_rms=-45.96
offset=17665
pitch_keycenter=g#3
sample=Tuba_mute_PP_G#3.opus
</region>

<region>
hikey=g#2
hivel=127
lokey=g2
lovel=1
lpc=DeeOQpNh2MJ617TAgbXTQdOqgEEdzkVB8IjtvVAKiMBsGvfAvX0gwJl4PT/sFgFAIQeCP+JeJ7+j2s2/itM2v+3e1D5QLGy+51uEPu66lT+p268/aTP+PXOL6L/7dso9
lpc_rms=-49.09
offset=3678
pitch_keycenter=g#2
sample=Tuba_mute_PP_G#2.opus
</region>

<region>
hikey=g#1
hivel=127
lokey=g1
lovel=1
lpc=+jlcQ27HrcODHhbBqczDQs+lYEISf95BbfaUwReKrcGK81vBVWTFQAnDEUFEN6NAg1BSwItcE8GidfDAvx2WvxihIECCELtA+PcEQSM+3D+TloHAsE7GwN+Mw8CT3/dA
lpc_rms=-39.79
offset=1551
pitch_keycenter=g#1
sample=Tuba_mute_PP_G#1.opus
</region>

<region>
hikey=f#3
hivel=127
lokey=f3
lovel=1
lpc=NS3IQhoxEMOjo1LBac/oQY6mp0HMHalB7xc/QLbpmsDtYQzBJl9WwCPoJ8Agfx8/2SA5QM+Kez+0b0E+b+ImvrhWMr9fWC/ATMBNv+KTtT7CDWg/f0rYP2hRNkC5Y0nA
lpc_rms=-45.88
offset=19666
pitch_keycenter=f#3
sample=Tuba_mute_PP_F#3.opus
</region>

<region>
hikey=f#2
hivel=127
lokey=f2
lovel=1
lpc=/2zOQtkWE8Nawo7BpVEIQh37vkE+6YdBiKvkv7UeZsBw8cfA4o62vyD8nT0wG15Axpy3PzJa6r6VFg7AEwEawFkw57+WlOq/VJggPoRYkT8V0e0/lrXkP3LoNj8d0fm/
lpc_rms=-46.08
offset=1089
pitch_keycenter=f#2
sample=Tuba_mute_PP_F#2.opus
</region>

<region>
hikey=f#1
hivel=127
lokey=f1
lovel=1
lpc=ZuOPQz6j0sPPBzvCKqTDQtcLlEISv1pCTgjcv1g4P8HHqp3BM6EHwSPHhD/S7Io9iBalwP2mHMEhRDfB65ByQGQtNUEfkXRBXnRCQR+9Ab/utkXBXdmjwXifKcFWtrJB
lpc_rms=-38.23
offset=553
pitch_keycenter=f#1
sample=Tuba_mute_PP_F#1.opus
</region>

<region>
hikey=e3
hivel=127
lokey=d#3
lovel=1
lpc=IeUBQ25tQsOZ96TArcMWQpoz0EHSdqpBjXu0P71DCME8+ArBsMYFPLTDaUBBwss/PvO9Py2HOr9U8ZDAaxGovummzr90GTDA3k4DPlfXmT8O7ps/CbDMPxyzEj8Hajq/
lpc_rms=-43.20
pitch_keycenter=e3
sample=Tuba_mute_PP_E3.opus
</region>

<region>
hikey=e2
hivel=127
lokey=d#2
lovel=1
lpc=1Ae4QrRF/MLpk6DBgnHSQVcnn0GAnZZBeAUFQL7ZIcB0XAfBL2e9v0Rkn77lx+g/kqOgP+wCPb5MLW+/DvsowApFfL8BVk6+Nyb3vSoNpj7iAb0/qX6FPjdmYD94lzu/
lpc_rms=-47.26
offset=673
pitch_keycenter=e2
sample=Tuba_mute_PP_E2.opus
</region>

<region>
hivel=127
key=e1
lovel=1
lpc=eIwlQ24aZ8OecvbB5bEpQvfx8EGhlwlCDntXQWIitEBfJNPAFkuowFRgHsHI3wXB4tzwwBM2ScDGja+/C7ZNQFYh1EBzaMtAlLaHQOcjIL1uLZLAWJCVwDvoh8CGP7RA
lpc_rms=-42.86
offset=736
sample=Tuba_mute_PP_E1.opus
</region>

<region>
hikey=d3
hivel=127
lokey=c#3
lovel=1
lpc=yi5bQw3JksNDJD3C4csfQvJNO0KqfThC2z6ZQYEboD8/NVTB2J4JwWQRr8A9yFjAXcchv5qTMD+Pws2/lL4TP5hb7D8RFqQ+wVGGQLzax7+aB67AEkfbwKGXrMC0dVRB
lpc_rms=-39.35
offset=548
pitch_keycenter=d3
sample=Tuba_mute_PP_D3.opus
</region>

<region>
hikey=d2
hivel=127
lokey=c#2
lovel=1
lpc=COBJQyGNmsPDzLPB6b2ZQjZ1cEI+DhFC6q/TwJkLX8H5DsnBvDCPwKOkUr8V+wlBj1GTQFsll7+FBX3AEcnpwEBa0r+rllNA0QYCQYgSzkAwChbADGQBwS0eIMHPVTJB
lpc_rms=-39.57
offset=1365
pitch_keycenter=d2
sample=Tuba_mute_PP_D2.opus
</region>

<region>
hikey=c3
hivel=127
lokey=b2
lovel=1
lpc=Id+3Qono/cIPQJvBDSW6QUSYrUE/KJ5BH21lQBRPDsA6uNbAnyH3v1EpWL8ZB069XIxIvSIW4T4N23K/cX/lv+korr+yl9G/PziBvvFVKT/R4ek/xmfxPwZ+7D8sniDA
lpc_rms=-47.30
offset=943
pitch_keycenter=c3
sample=Tuba_mute_PP_C3.opus
</region>

<region>
hikey=c2
hivel=127
lokey=b1
lovel=1
lpc=ebgAQ479PMP9KbzB93E0QspPFUKNsNVBolSwuggo4sBR/IvBYuaYwMhUvb/rvLpAHPNlQP8mrD50Ql3AOUV7wEJH7r+9qOI/5QljQPNrBkANl8E/u9VUwOAXgMDpy2BA
lpc_rms=-44.05
offset=1883
pitch_keycenter=c2
sample=Tuba_mute_PP_C2.opus
</region>

<region>
hikey=a#3
hivel=127
lokey=a3
lovel=1
lpc=u8gbQy8Oh8Pki41Co6iRQbCmREHeWfNBjqgaQL4wXsEnp8nAD45nQO6w0L8/QlW+Fb09QIVH6b8u8e6/bOI3QNpXHr+6DMbAsKPoP1MkF0BqaPm/LYXjuz7KN8ATfJNA
lpc_rms=-38.34
offset=180
pitch_keycenter=A#3
sample=Tuba_mute_PP_A#3.opus
</region>

<region>
hikey=a#2
hivel=127
lokey=a2
lovel=1
lpc=+4whQ5WsgcMUXUVB/0ZXQh9B5UF/o95BLPTkP/2ZTMFR3kbBayWCwDD7dkCwh0pASdibPXpmpMAuxsbA7NnBPzB0KkAAhw6/dE+dQHHsZECXFCvABGgkwOqHKT2aIgo+
lpc_rms=-41.07
offset=1154
pitch_keycenter=a#2
sample=Tuba_mute_PP_A#2.opus
</region>

<region>
hikey=a#1
hivel=127
lokey=a1
lovel=1
lpc=y3EaQ+MziMO4xfdBknOnQrPm7UHeOvFAnvSuwVc0c8HyOhnBuysRQX9u8UAVf6ZAZ2XKv4+VEsEYK+7AliRDQBkmEEAd1GdARDVvQJbC/j4RWYe/jMZMwIW7CsC44hVA
lpc_rms=-41.43
offset=2840
pitch_keycenter=a#1
sample=Tuba_mute_PP_A#1.opus
</region>
</group>

<group>
group_label=MF
lpc_hicc1=84
lpc_locc1=43

<region>
hikey=g#3
hivel=127
lokey=g3
lovel=1
lpc=Xwb2QjtQnsPbGXFD5jpqwogDUEIBxFzBMbIgwlSU20CHDlbBI8+cQdAjj0FsQ7rBYe/HQJqDQEGLibPB/B2Mv6rIJUGhI0jA+1CIQSMcL8Cx83XB4l4AwFcH1UBxYc4+
lpc_rms=-34.91
offset=1900
pitch_keycenter=g#3
sample=Tuba_mute_MF_G#3.opus
</region>

<region>
hikey=g#2
hivel=127
lokey=g2
lovel=1
lpc=PcjnQjfug8OKvBJDHarUvpqaykFVMNBABkbvwZge2cCHJhbAOZjAQI7xwkCK7II/ArOiv28u6D9ocxfB+3svwBcZtEB0sug/ME8CQOvmDcADQOg/tzk6QChMx8BIPu0/
lpc_rms=-38.65
offset=1562
pitch_keycenter=g#2
sample=Tuba_mute_MF_G#2.opus
</region>

<region>
hikey=g#1
hivel=127
lokey=g1
lovel=1
lpc=QBWEQ/ro9sMym7hCm9cOQ4gaF0JKaVBA7e/SwXWjK8EfzTHBo9wYQCDVhkCmYA+/Fbc8wTT3WcGDaDNA81tJQdVJKEH1iDtBDlZOQPBY8cBjLXLB0cfmwPY/n7/YNzdB
lpc_rms=-35.80
offset=1514
pitch_keycenter=g#1
sample=Tuba_mute_MF_G#1.opus
</region>

<region>
hikey=f#3
hivel=127
lokey=f3
lovel=1
lpc=Qi8mQxW9wsPcEntDwEMRwm42KkJpAl7BX5qiwZEIQEHc5ZfBfLAWQKctXkDe+gvBgVa2QJnnt0EbjZ3BDFUXwbtohEFi3xO/v3auwL1/tUBmPS/BT+O3P+MnBkEK3FzA
lpc_rms=-33.82
offset=1504
pitch_keycenter=f#3
sample=Tuba_mute_MF_F#3.opus
</region>

<region>
hikey=f#2
hivel=127
lokey=f2
lovel=1
lpc=20MEQ3b4lsOJrRpDGXsZQhxVUkD95xXByUmdwZG57D70Xy7AbEi/QFZ5WkBZUHzAoeTAwAJ6k0Drn8q/l16qv5B6p0DKkJQ/qq0hQLKvuMCyY3nAckMoQGFruUBMaH7A
lpc_rms=-38.31
offset=189
pitch_keycenter=f#2
sample=Tuba_mute_MF_F#2.opus
</region>

<region>
hikey=f#1
hivel=127
lokey=f1
lovel=1
lpc=0jOVQ0fJCMRb6qNCEaMlQyxXhEKIWxvAhhEsws/PqcH4jwLBWmAvQRniOkD5LjvAPugFwcSFCsCSdkvAs9rnQKykv0D2PXRAfhUHQTrDDUBlI2rAYe9ywdPckMGWAq9B
lpc_rms=-35.63
offset=595
pitch_keycenter=f#1
sample=Tuba_mute_MF_F#1.opus
</region>

<region>
hikey=e3
hivel=127
lokey=d#3
lovel=1
lpc=DzcZQy9JtsNsXoRDk5OpwvWVYEK+1BBABnIawpaIoECmYGE/obTMQY94FT5Q4P7BINCPwM2clEGWy7a+cTznwNCKCL3JP+JAk7I3QcwzFsE9/AjBTtGFQB5RWL9iZeI/
lpc_rms=-33.69
offset=274
pitch_keycenter=e3
sample=Tuba_mute_MF_E3.opus
</region>

<region>
hikey=e2
hivel=127
lokey=d#2
lovel=1
lpc=BUrpQrXji8PduilDECmyQT0u78CJvTTB8/+qwQwMkEDHIH5AFs7uQABSCEDcjSbAXxc1wQ28tD+F6OZA59gwQL19esAzzonAewPQQHl95j9t65rAkW+FP4Dda8Dcp2JA
lpc_rms=-38.46
offset=1286
pitch_keycenter=e2
sample=Tuba_mute_MF_E2.opus
</region>

<region>
hivel=127
key=e1
lovel=1
lpc=JgNaQzt8yMMwyZdCoDbCQmXYH0JcTKtBgyXJwRwar8F8X2HBMJcQQU35nUB3Xm7AfYEuwWIjR8AtwWlAzm2kQJ2ECkFJfBZB9Tj5v4gwIsApwJvARcQawYYH7MBySVFB
lpc_rms=-37.83
offset=635
sample=Tuba_mute_MF_E1.opus
</region>

<region>
hikey=d3
hivel=127
lokey=c#3
lovel=1
lpc=l1aQQ8FbMcTUlQBEO1LMwmYyw0E762pBotjNwcdPvEEUNyLCYA9DQQpmY0FuoDvCLJGnQC6obUImF8zBV1RLweDQG0Et84PB7A54Qe2igkH4hrnBP/xCv+3WiUAv+Yo/
lpc_rms=-28.90
pitch_keycenter=d3
sample=Tuba_mute_MF_D3.opus
</region>

<region>
hikey=d2
hivel=127
lokey=c#2
lovel=1
lpc=4P2ZQzjbLMSwVJ9DmzPRQlRNQUJOxpzBIaOIwlO6DcIjWpU/TtkAQsHYLUFPtxJBt4hXwSuqmsAYpIPAOnCpwFrN9L91JiJBrIA6QRwuVEDMLV3An0EywZvYg8Hh74xB
lpc_rms=-30.97
offset=1283
pitch_keycenter=d2
sample=Tuba_mute_MF_D2.opus
</region>

<region>
hikey=c3
hivel=127
lokey=b2
lovel=1
lpc=c2n8QlwdksNVEihDAKi7PyySf0EHcvZAD0ugwSm26MCdPpjAxL4ZQLFIOkAG+grByjSVv0CnaEFOc/M/sLjAwINZGMBhnog/uizKQECDlcBILG3Aj0IzwITXBkGD3DnA
lpc_rms=-37.74
offset=981
pitch_keycenter=c3
sample=Tuba_mute_MF_C3.opus
</region>

<region>
hikey=c2
hivel=127
lokey=b1
lovel=1
lpc=c70NQ1leicOl35NCajReQqwoAEJCHaRAasejwQ6SbMEC1QfB9jnEQKsluT9F47NAxAwnwJV7Ur5pHo3AjyMCQOmsCUC25Y4/A7yWQM3JP8BncMO/a2dWwCADlr+7uFNA
lpc_rms=-39.03
offset=256
pitch_keycenter=c2
sample=Tuba_mute_MF_C2.opus
</region>

<region>
hikey=a#3
hivel=127
lokey=a3
lovel=1
lpc=ZdQxQ0NB7MPsgMZD/y8Tw6pI40JPWP7BsaOAwpLMmkENb7m/g4kDQQY1gUFhPsvBvE8xv+w2xkE5CAzBnUtpwad3kUFQK9fAhUgCwdNY2EBMcAlAyy4cQaiExcGt0U1B
lpc_rms=-30.34
offset=987
pitch_keycenter=A#3
sample=Tuba_mute_MF_A#3.opus
</region>

<region>
hikey=a#2
hivel=127
lokey=a2
lovel=1
lpc=2JFGQwkS6MNrOpNDzShPwh2chUJGmOXAHhQxwjNkRkGTD7rBtZGBQSMiykHLgKPBuQIPwQ5yAEEM/abA9WVgwCh98L4ACSZAwMFYQatWvMBQWoDA1ArEQLWaY8DRzpm/
lpc_rms=-32.76
offset=1550
pitch_keycenter=a#2
sample=Tuba_mute_MF_A#2.opus
</region>

<region>
hikey=a#1
hivel=127
lokey=a1
lovel=1
lpc=f61QQ56R0MOp3AVDvJybQqzM2UEQcVNBMpjQwd6MycHxxdK/8J8/QTp5z0AtGti+Zb8lwXCuA8EV4fe/8/igQMju6kB7oIxAGDZHQD4/SsBwT6fAVJxpwJ/pcUBRO3o+
lpc_rms=-36.56
pitch_keycenter=a#1
sample=Tuba_mute_MF_A#1.opus
</region>
</group>

<group>
group_label=FF
lpc_hicc1=127
lpc_locc1=85

<region>
hikey=g#3
hivel=127
lokey=g3
lovel=1
lpc=ez8XQ3HE2MMeVcxDOvUEw3VxP0K05IfCTLbsQTUlp0CLNZ3BTrUtQdTrxkD7DUfBqpFtQSwkBMHFGirBqHDNQfMDRcFbtGPB+qscQciCOUETbUXBK48MQTpEOcF3mbtA
lpc_rms=-30.04
offset=261
pitch_keycenter=g#3
sample=Tuba_mute_FF_G#3.opus
</region>

<region>
hikey=g#2
hivel=127
lokey=g2
lovel=1
lpc=4GDTQoJ1tMMNOO9DFN6Rw0IEjEJO4JTBmq0LQtfUG8E3NaTBnUYrQSVU/0BnK3rAFoUBwYjmVEHUod/Alf4cwR4eXkGWFNU/0yEBwUqWPMBRlCBBHDuAwBn4HcBgXN4/
lpc_rms=-30.50
offset=1866
pitch_keycenter=g#2
sample=Tuba_mute_FF_G#2.opus
</region>

<region>
hikey=g#1
hivel=127
lokey=g1
lovel=1
lpc=tBNyQ2dIHcRzYdFD6vKXQnBRL8LMxprC7jb/wSUMDkKBKq5BtM+hwEV/oMBJeQBA5IdIwW2G3EA0pdtA6I4ZwXg9/z/TzCtBiwQ6v0A1VsGzdZtAFhq5wMROYEEpkuDA
lpc_rms=-31.85
offset=2211
pitch_keycenter=g#1
sample=Tuba_mute_FF_G#1.opus
</region>

<region>
hikey=f#3
hivel=127
lokey=f3
lovel=1
lpc=T+jeQj2uwcPKIwBEWzqPw/KFAkIdsRLBkaFwQoW568F6cc7Bqm0KQoU/IcHmlxjBETrkQGiv60BCrY3Bk383QVey2kCEu5jB9U9nQS1EDkFXuADC10QJQrC/ocFJtbtA
lpc_rms=-30.35
offset=1973
pitch_keycenter=f#3
sample=Tuba_mute_FF_F#3.opus
</region>

<region>
hikey=f#2
hivel=127
lokey=f2
lovel=1
lpc=1ScCQ6pf2cM7BgtE+zigw6UdaUJsBTNBH8zxQDaGMsC7OyHBrXC+vxdCAUEbU2JBrU7kwQ1DPUHS0SdB9sWWwbpWl0AEVXZBCYc2wQ67yL/EYppAw3CvvwobcMB+yTBA
lpc_rms=-29.42
offset=1128
pitch_keycenter=f#2
sample=Tuba_mute_FF_F#2.opus
</region>

<region>
hikey=f#1
hivel=127
lokey=f1
lovel=1
lpc=EitKQ7QF68NAUVtDmqH7QvzC0cDRr2PCsDcywgLyXUGSoUhBA0s8QXZkgMCEs+o/Q/WZwJirmcCPGq++7jSRP3JMAEFqEh7AvsGIQC7qv8Bd6X7Adv6QQPxOjr/aGdw+
lpc_rms=-35.51
pitch_keycenter=f#1
sample=Tuba_mute_FF_F#1.opus
</region>

<region>
hikey=e3
hivel=127
lokey=d#3
lovel=1
lpc=cts9Q6OMDMSijglE7BgrwyRosUHy82PCR88OQnZJg0Dm4ezByp77QNm9ekG5VoW+45rWwBeKHEH0cz7BPRS5QBHUzcACfYTAQsRTQQghU8AQz9dARwdNwFH/e8GwiC5B
lpc_rms=-29.08
offset=522
pitch_keycenter=e3
sample=Tuba_mute_FF_E3.opus
</region>

<region>
hikey=e2
hivel=127
lokey=d#2
lovel=1
lpc=w37fQl5Ip8Nsd6tDZxDswoHTXUEFxCPC8N8qQf948EEo7DrAJAqkwdCxB8AnyJBBCaqLwH1SA8HPIHVAQKSpv3/vLEBzdaZAg7cSwVK8gkD4OUfA3WlKQS+1k8HgcQVB
lpc_rms=-32.74
offset=122
pitch_keycenter=e2
sample=Tuba_mute_FF_E2.opus
</region>

<region>
hivel=127
key=e1
lovel=1
lpc=Nu23QmCKk8Mh9KlDwAX7wtX3O8KzmLRBjnzmQd+J9cBFfk7Bu6FZv3lhBkFp4Qg/5DiJwJIiaL3JtA5AIpvNPnuJlMDS/blAqsi4vS8oxcCvjapAmLgivw4Jdb9wbzo9
lpc_rms=-34.82
offset=1930
sample=Tuba_mute_FF_E1.opus
</region>

<region>
hikey=d3
hivel=127
lokey=c#3
lovel=1
lpc=eASVQ42pe8QpLptEC5kWxKremUKHxwTDxFk4Q0SumcEqmJXCmj5bQuFsicLoGLtC70YCwmHLBsLTTbBBEBRNwQ3q30FhgJTBt8d4QFt7N0Gy9fTBcEfiQYXpL8GcqJM/
lpc_rms=-22.63
offset=256
pitch_keycenter=d3
sample=Tuba_mute_FF_D3.opus
</region>

<region>
hikey=d2
hivel=127
lokey=c#2
lovel=1
lpc=4sFEQ3nDD8TZQgREzeHmwp57pUF+GanCX/xIwR3XFULXm1tBTUdVvylMYsH1ey5BQCjAPvQ1SsFYJBc/76P5QJNEyMB+RWVB7N4iwTooOr8KqTLAOl8LQXcIDcHeEXVA
lpc_rms=-29.23
offset=1921
pitch_keycenter=d2
sample=Tuba_mute_FF_D2.opus
</region>

<region>
hikey=c3
hivel=127
lokey=b2
lovel=1
lpc=3cMyQ4veGMQhdTpEaJ2ew0FaZMF8NkXCsLygQpfR7EEqIzDCtfq8wT4XukEv845Br5U3wWX4vsCNcrTAlEf+PvCKt0HV9F/B5OQVwTLCxECXtc2/NHKPQRqHvcG4vhBB
lpc_rms=-27.65
offset=1721
pitch_keycenter=c3
sample=Tuba_mute_FF_C3.opus
</region>

<region>
hikey=c2
hivel=127
lokey=b1
lovel=1
lpc=BxY2Q8vp88MbTrNDaluYQW0zC8JNiyPCeQHUwWtSmUGZoapBMIexwJF0YsHTvV9BxIn8QC9wlcF1suM/H/0aQTlmB8H3lpbAFliAQQAFM0BOvYXBXGzRv/dcSEEuDJfA
lpc_rms=-33.14
offset=1930
pitch_keycenter=c2
sample=Tuba_mute_FF_C2.opus
</region>

<region>
hikey=a#3
hivel=127
lokey=a3
lovel=1
lpc=IxP5QnIRuMMMH79DlI01w47Fv0K8MIbCQGIEQbo/FEBdy5Y/kvGnwE4E7EFTgCPCzNUcQkOoBsLeFmVBQYZ8wHvOdkHVX6fBJ6cWQaj2NkHOrsDBslSHQVfexMDXIts/
lpc_rms=-28.43
offset=1230
pitch_keycenter=A#3
sample=Tuba_mute_FF_A#3.opus
</region>

<region>
hikey=a#2
hivel=127
lokey=a2
lovel=1
lpc=8Ms1Q1SsEcQ57yNEW4SRw2dxu0IunuvC+rZ2Qr7YpECyS7O/sAe6wXM2w0G0V2BBcdnkwX4m20C7k89AM0TYwXIzC0Jmnc/AImjtwCaSIEDuhT7A4F6evpU+YkCHbqi/
lpc_rms=-26.69
offset=792
pitch_keycenter=a#2
sample=Tuba_mute_FF_A#2.opus
</region>

<region>
hikey=a#1
hivel=127
lokey=a1
lovel=1
lpc=bvUqQ9RT38PvXKlDtcC9wcynR8FW6f3B0w6Dwc/+tUFz7Oe+XwW6QJXCoMDUwuXAWzCeQOv6HUDCl5o9NJZJPzC2+sCi+bQ+tUBeQWq5E8CMuVfBP8YGwP5RdUFMK9PA
lpc_rms=-33.57
pitch_keycenter=a#1
sample=Tuba_mute_FF_A#1.opus
</region>
</group>